<svg xmlns="http://www.w3.org/2000/svg" id="Layer_1" data-name="Layer 1" viewBox="315.2 264.4 369.61 471.25"><defs><style>.cls-1{fill:#ec6f23;}.cls-2{fill:#010101;}.cls-3{fill:#fff;}</style></defs><path class="cls-1" d="M413.47,651.65a460.1,460.1,0,0,0,86.54,84,460.35,460.35,0,0,0,86.53-84L500,567.42Z"/><path class="cls-1" d="M373.22,591.57,500,470,627.08,592.14a446,446,0,0,0,46.86-122.47,41,41,0,0,0,1.15-6.33H324.92A458.69,458.69,0,0,0,373.22,591.57Z"/><path class="cls-1" d="M373.22,591.57a443.11,443.11,0,0,0,40.54,60.37L500,568l86.53,84.24a466.41,466.41,0,0,0,40.25-60.09L499.72,470Z"/><path class="cls-2" d="M500,565.4l-86.25,84a453.58,453.58,0,0,1-38.52-57.5L500,472,625.07,592.14a426.6,426.6,0,0,1-38.53,57.5Z"/><path class="cls-2" d="M500,474.27,622.77,592.43a464.59,464.59,0,0,1-36.51,54.62L502.31,565.4l-2.3-2.3-2.3,2.3-83.66,81.37a429.56,429.56,0,0,1-36.52-54.63L500,474.27m0-4.6L373.22,591.28a442.49,442.49,0,0,0,40.54,60.37L500,567.7l86.53,84.24a465.72,465.72,0,0,0,40.25-60.09L500,469.67Z"/><path class="cls-2" d="M683.14,333.4A162.75,162.75,0,0,1,636,340.3a158.39,158.39,0,0,1-136-75.9,158.41,158.41,0,0,1-136,75.9,164.21,164.21,0,0,1-47.15-6.9,448.45,448.45,0,0,0,7.77,129.94H674.8A429.32,429.32,0,0,0,683.14,333.4Z"/><path class="cls-3" d="M586.54,386.87V371.92h-9.2V361.28l-9.48-2.58H567v-8.92s-3.16,4-18.4,4c-14.37,0-22.71-4.6-33.92-4.6a15.85,15.85,0,0,0-14.38,6.32v3.74H500v-3.74a15.57,15.57,0,0,0-14.38-6.32c-11.5,0-19.83,4.6-33.92,4.6-14.95,0-17.83-4-17.83-4v9.49h-.57L423,361.57v10.64h-9.2v15H423v24.15h-9.2v14.95H423v18.4a203.29,203.29,0,0,0,29.61,2.3c16.68,0,26.45-2.3,37.37-2.59V449a24.82,24.82,0,0,0,10.35,2.3,27.17,27.17,0,0,0,10.64-2.3v-4.6c10.93.29,20.41,2.59,37.38,2.59a253.9,253.9,0,0,0,29.32-2.3v-18.4h9.2V411.31h-9.2V387.16h8.91Z"/><path class="cls-2" d="M568.43,357.83v-11.5l-2.87,2.88s-3.45,3.45-17.25,3.45l-18.69-2.59-15.24-2A18.8,18.8,0,0,0,500,353.52a17.29,17.29,0,0,0-14.38-5.46l-15.23,2.3L451.71,353c-13.51,0-16.39-3.17-16.39-3.17l-2.87-3.45v12.08l-11.22,2.3v85.67l1.44.29a205.17,205.17,0,0,0,29.61,2.3c12.08-.29,23.87-1.15,35.65-2.59v4l.87.57a28.5,28.5,0,0,0,10.92,2.3,30,30,0,0,0,11.21-2.3l.86-.57v-4c11.79,1.44,23.87,2.3,35.65,2.59a251.89,251.89,0,0,0,29.62-2.3l1.43-.29V361Zm-66.7-.86a14.31,14.31,0,0,1,12.94-5.46l14.66,2,19.26,2.59a38.46,38.46,0,0,0,17-2.88v81.08a56.7,56.7,0,0,1-17,2.59l-18.68-2.59-15.24-2a19.31,19.31,0,0,0-12.94,4Zm-66.41-3.45a38.72,38.72,0,0,0,16.1,2.59l19.26-2.59,14.67-2A14.3,14.3,0,0,1,498.28,357v79.35a19.3,19.3,0,0,0-12.93-4l-15.24,2.3-18.69,2.58C437.91,437.18,435,434,435,434c0-.57.29-75,.29-80.5Zm140.3,90a225.26,225.26,0,0,1-27.89,2.3q-18.54-.44-37.09-2.59l-1.72-.29v5.46a24.57,24.57,0,0,1-8.91,1.73,23.1,23.1,0,0,1-8.63-1.73v-5.46l-1.72.29q-18.54,2.16-37.09,2.59a183.44,183.44,0,0,1-27.89-2.3V363.3c1.44-.29,5.75-1.15,8.05-1.73v72.74c.87,1.72,4,5.46,19.27,5.46l19.26-2.59,14.66-2a14.06,14.06,0,0,1,12.94,5.46l.57-.29h2.3l.58.29a14.32,14.32,0,0,1,12.93-5.46l14.67,2,19.26,2.59c15.52,0,19.26-4,19.55-4.6L569,361c2,.57,5.75,1.72,6.9,2v80.5Z"/><path class="cls-2" d="M457.75,367.61a2.18,2.18,0,0,0-2.3,1.72l-5.18,11.22-.29.28c-.28,0-.28-.28-.57-.57s-.86-2-2-5.18l-1.73-3.73c-.57-1.44-1.15-2.3-1.15-2.59a2.17,2.17,0,0,0-2-1.15V367h7.19v.58c-.58,0-2,0-2,.86v.86l3.45,8.05,2.88-6.61a3.6,3.6,0,0,0,.29-1.72c0-.87-.58-1.15-2-1.15v-.58h5.47v.29Z"/><path class="cls-2" d="M472.12,380.55H459.18V380a2.15,2.15,0,0,0,2.59-2.59v-7.76c0-1.44-.86-1.44-2.3-1.72v-.58h11.79c.29,0,.57,0,.57.29l.29,3.16h-.57a7.83,7.83,0,0,0-2-2.3,1.7,1.7,0,0,0-1.15-.29h-3.16l-.29.58v4.31h.58a2.16,2.16,0,0,0,1.44-.29,5.83,5.83,0,0,0,1.43-.86c0-.29.29-.86.29-1.15h.86v5.46H469c0-1.15-.29-2-1.15-2.3a2.66,2.66,0,0,0-1.44-.28h-.86v3.45a3.6,3.6,0,0,0,.29,1.72c.28.29.57.58.86.86h3.16a2.66,2.66,0,0,0,1.44-.28,6.67,6.67,0,0,0,2-2.88h.58V380C472.7,380.26,472.7,380.55,472.12,380.55Z"/><path class="cls-2" d="M488.22,371.35h-.29c-.28-.58-.57-1.44-.86-2a3.84,3.84,0,0,0-2.59-1.43h-1.43V378c0,1.44.57,1.44,2.3,1.72v.58h-7.48v-.58c2-.28,2.3-.57,2.3-1.15V367.9a5,5,0,0,0-2,.28,5.09,5.09,0,0,0-2.59,2.88H475v-3.45c0-.29,0-.29.28-.29h13.23v4C488.51,371.06,488.51,371.35,488.22,371.35Z"/><path class="cls-2" d="M457.17,392.33h-.29c-.28-.57-.57-1.43-.86-2a3.89,3.89,0,0,0-2.59-1.44H452V399c0,1.43.86,1.43,2.3,1.72v.58h-7.48v-.58c2-.29,2.3-.57,2.59-1.15V388.88a4.82,4.82,0,0,0-2,.29,5.09,5.09,0,0,0-2.59,2.88h-.58v-3.74c0-.29,0-.29.29-.29h13.23v.58l-.58,3.73C457.46,392.05,457.46,392.33,457.17,392.33Z"/><path class="cls-2" d="M472.7,401.53H459.76v-.86a5.45,5.45,0,0,0,2-.57c.29-.29.29-.87.58-2v-7.76c0-1.44-.58-1.44-2.3-1.72v-.29a.28.28,0,0,1,.28-.29h11.5c.29,0,.58,0,.58.29l.29,3.16h-.58a7.8,7.8,0,0,0-2-2.3,1.72,1.72,0,0,0-1.15-.29H465.8s-.29,0-.29.58v4.31h.57a2.14,2.14,0,0,0,1.44-.29,5.92,5.92,0,0,0,1.44-.86c0-.29.29-.86.29-1.15h.86c0,.58-.29,1.73-.29,2.88v2.58h-.57c0-1.15-.29-2-1.15-2.3a2.68,2.68,0,0,0-1.44-.28h-.86v3.45a3.71,3.71,0,0,0,.28,1.72c0,.29.58.58.87.86h3.16a2.68,2.68,0,0,0,1.44-.28,11.58,11.58,0,0,0,2.3-2.88h.57v3.45C473.27,401.53,473,401.53,472.7,401.53Z"/><path class="cls-2" d="M481.9,401.82a6.63,6.63,0,0,1-3.17-.86h-.57c-.29,0-.58.29-.86.57a1.09,1.09,0,0,1-.87-.28c0-.29.29-1.15.29-1.73v-2.3c0-.29.29-.29.58-.29h.28c.29.87.87,1.73,1.15,2.59a4,4,0,0,0,2.88,1.44,6.72,6.72,0,0,0,2.3-.58,1.73,1.73,0,0,0,.86-1.72c0-.58,0-.86-.29-1.15a1.56,1.56,0,0,0-1.43-.86c-.58-.29-2.59-.87-3.45-1.15a4.29,4.29,0,0,1-1.73-1.44,3.55,3.55,0,0,1-.86-2.59,3.87,3.87,0,0,1,4-3.74h.29a5.74,5.74,0,0,1,3.16.87l.87-.87c.28,0,.57,0,.57.29,0,.58-.29,1.15-.29,1.73,0,.28.29,1.72.29,2-.29,0-.29.29-.57.29h-.29a8.68,8.68,0,0,0-1.15-2.3,3.11,3.11,0,0,0-2.59-1.15,2.22,2.22,0,0,0-2.3,2h0a2.15,2.15,0,0,0,1.73,2,4.11,4.11,0,0,0,2,.58,12.84,12.84,0,0,1,2,.86,3.72,3.72,0,0,1,2.3,3.45,5.22,5.22,0,0,1-5.17,4.31Z"/><path class="cls-2" d="M462.63,422.52H449.7V422a5.33,5.33,0,0,0,2-.58,5.26,5.26,0,0,0,.57-2V411.6c0-1.44-.86-1.44-2.3-1.73v-.57h11.79c.29,0,.58,0,.58.28l.28,3.17h-.57a7.69,7.69,0,0,0-2-2.3,1.73,1.73,0,0,0-1.15-.29h-3.17l-.28.57v4.32H456a2.14,2.14,0,0,0,1.44-.29,6.89,6.89,0,0,0,1.44-.86c0-.29.28-.87.28-1.15h.87v5.46h-.58c0-1.15-.29-2-1.15-2.3a2.56,2.56,0,0,0-1.44-.29H456v3.45a3.64,3.64,0,0,0,.29,1.73c.29.28.57.57.86.86h3.16a2.56,2.56,0,0,0,1.44-.29,6.5,6.5,0,0,0,2-2.87h.87V422C463.21,422.52,463.21,422.52,462.63,422.52Z"/><path class="cls-2" d="M482.18,409.87c-1.43,0-2.58.86-2.58,2.88v9.77c-.29,0-.29.29-.58.29a.28.28,0,0,1-.29-.29l-9.48-10.06v7.19a2.16,2.16,0,0,0,.57,1.43,4.08,4.08,0,0,0,1.73.58v.57h-6.33v-.57a2.62,2.62,0,0,0,2-.86,3.64,3.64,0,0,0,.29-1.73v-6.9a2.26,2.26,0,0,0-.57-1.44c-.29-.28-.29-.57-.58-.57-.57-.29-.86-.58-1.44-.58V409h3.74a.28.28,0,0,1,.29.29l6.9,7.76c.57.57,1.15,1.44,1.72,1.72v-6.9c0-.57-.28-.86-.28-1.43a4.44,4.44,0,0,0-2.3-.58v-.57h6v.28C482.18,409.58,482.18,409.58,482.18,409.87Z"/><path class="cls-2" d="M526.46,367.61c-1.44,0-2.59.86-2.59,2.87v9.78c-.29,0-.29.29-.58.29a.28.28,0,0,1-.28-.29l-9.49-10.06v7.18a2.23,2.23,0,0,0,.57,1.44,4.08,4.08,0,0,0,1.73.58V380h-5.75v-.57a2.59,2.59,0,0,0,2-.87,3.6,3.6,0,0,0,.29-1.72v-6.9a2.19,2.19,0,0,0-.58-1.44c-.28-.29-.28-.57-.57-.57-.58-.29-.86-.58-1.44-.58v-.57h3.74c.29,0,.29.28.57.28l6.9,7.77c.58.57,1.15,1.43,1.73,1.72v-6.9c0-.57-.29-.86-.29-1.44a4.55,4.55,0,0,0-2.3-.57V367h6v.29A.28.28,0,0,1,526.46,367.61Z"/><path class="cls-2" d="M540.54,378.82a6.75,6.75,0,0,1-9.48,0h0a7.48,7.48,0,0,1,0-10.06,6.49,6.49,0,0,1,11.21,4.89A7.08,7.08,0,0,1,540.54,378.82Zm-2.3-10.06a3.42,3.42,0,0,0-2.58-1.44,3,3,0,0,0-2.59,1.44,7.32,7.32,0,0,0-1.15,4.89,8.47,8.47,0,0,0,1.15,4.6,3,3,0,0,0,2.59,1.43,3.14,3.14,0,0,0,2.87-1.72,11.46,11.46,0,0,0,.86-4.31A7.26,7.26,0,0,0,538.24,368.76Z"/><path class="cls-2" d="M559.52,367.61a2.18,2.18,0,0,0-2.3,1.72L552,380.55l-.28.28c-.29,0-.29-.28-.58-.57s-.86-2-2-5.18l-1.73-3.73c-.57-1.44-1.15-2.3-1.15-2.59a2.17,2.17,0,0,0-2-1.15V367h7.19l.29.29v.29c-.58,0-2,0-2,.86v.86l3.45,8.05,2.88-6.61a3.6,3.6,0,0,0,.29-1.72c0-.87-.58-1.15-2-1.15v-.58h5.47a.28.28,0,0,1-.29.29Z"/><path class="cls-2" d="M522.14,392.33h-.28c-.29-.57-.58-1.43-.87-2a3,3,0,0,0-2.58-1.44H517V399c0,1.43.86,1.43,2.3,1.72v.58h-7.48v-.58c2-.29,2.3-.57,2.59-1.15V388.88a4.84,4.84,0,0,0-2,.29,5.09,5.09,0,0,0-2.59,2.88h-.57v-3.74c0-.29,0-.29.28-.29h13.23v.58l-.58,3.73Z"/><path class="cls-2" d="M538.24,401.53h-6.9V401c1.44,0,1.73-.29,1.73-.86s-.29-1.15-.29-1.73a11,11,0,0,1-.57-1.72.28.28,0,0,0-.29-.29h-4.31a4.59,4.59,0,0,0-.87,2.59v.86c0,.57.29.86,2,.86v.58h-5.47v-.58a2.64,2.64,0,0,0,2-.86l1.72-3.45a44.38,44.38,0,0,0,2-4.89c.58-1.15.87-1.44.87-2a5.07,5.07,0,0,0,.57-1.44c0-.29.29-.29.58-.29s.57,0,.57.29.29.29.29.58a59.14,59.14,0,0,1,2.3,5.75,14.37,14.37,0,0,1,1.15,3.16,13.87,13.87,0,0,0,.86,2,1.93,1.93,0,0,0,2,1.15v.86Zm-8.62-10.63h0a7.35,7.35,0,0,0-.86,2.3,7.36,7.36,0,0,1-1.15,2.58h4C531.34,394.63,530.19,392.33,529.62,390.9Z"/><path class="cls-2" d="M558.94,401.53H552V401h1.44a1.73,1.73,0,0,0,.86-1.73v-9.77h0l-2.87,6.32a18.61,18.61,0,0,0-.86,2.3,10.1,10.1,0,0,0-1.15,3.17c0,.28-.29.28-.58.28s-.29,0-.29-.28a4.53,4.53,0,0,0-.86-1.73l-4.6-9.77h0v8.91c0,2,.86,2.87,2.59,2.87v.58h-6v-.58a5.21,5.21,0,0,0,2-.57c.29-.29.58-.86.58-2.3v-6.9a3.31,3.31,0,0,0-.58-2,3.6,3.6,0,0,0-1.72-.29v-.58h5.46l.29.29,4,9.2.58-1.72a36,36,0,0,1,2.87-6,6.24,6.24,0,0,1,.87-1.44h5.17v.58a2.14,2.14,0,0,0-2,.86c-.29.29-.29.57-.29,1.72V399c0,2.58.58,2.87.86,2.87.58,0,.87.29,1.44.29v.29C558.94,401.25,558.94,401.25,558.94,401.53Z"/><path class="cls-2" d="M521.86,413.32h-.29c-.29-.57-.58-1.44-.86-2a3.91,3.91,0,0,0-2.59-1.44h-1.44v10.06c0,1.44.86,1.44,2.3,1.73v.57h-7.47v-.57c2-.29,2.3-.58,2.58-1.15V409.87a4.87,4.87,0,0,0-2,.29,5,5,0,0,0-2.59,2.87h-.57v-3.45c0-.28,0-.28.29-.28h13.22v.57l-.57,3.45Z"/><path class="cls-2" d="M538.53,409.87a2.19,2.19,0,0,0-2.3,1.73l-5.17,11.21-.29.29c-.29,0-.29-.29-.58-.58,0-.29-.86-2-2-5.17l-1.72-3.74c-.58-1.44-1.15-2.3-1.15-2.59a2.18,2.18,0,0,0-2-1.15v-.57h6.9l.29.28v.29c-.57,0-2,0-2,.86v.87l3.45,8,2.87-6.62a3.6,3.6,0,0,0,.29-1.72c0-.86-.57-1.15-2-1.15v-.58h5.46v.29Z"/><path class="cls-2" d="M559.23,422.52h-6.9V422h1.44a1.76,1.76,0,0,0,.86-1.73v-9.49h0l-2.87,6.33a18,18,0,0,1-1.15,2.3c-.58,1.44-.87,2.59-1.15,3.16,0,.29-.29.29-.58.29s-.29,0-.29-.29a12.23,12.23,0,0,1-.57-1.72l-4.6-9.78h0v8.91c0,2,.86,2.88,2.59,2.88v.57h-6v-.57a2.24,2.24,0,0,0,2.59-2.88V413c0-1.15,0-1.43-.58-2a3.6,3.6,0,0,0-1.72-.29v-.57h5.46l.29.29,4,9.2.86-1.73a60.11,60.11,0,0,1,2.88-6,6.16,6.16,0,0,1,.86-1.43h5.18l.28.28V411a2.15,2.15,0,0,0-2,.86c-.29.29-.29.58-.29,1.73v6.61c0,2.59.58,2.88.87,2.88a12.44,12.44,0,0,0,1.43.28v.29C559.23,422.23,559.23,422.52,559.23,422.52Z"/></svg>